<svg width="1132" height="908" viewBox="0 0 1132 908" fill="none" xmlns="http://www.w3.org/2000/svg">
<path fill-rule="evenodd" clip-rule="evenodd" d="M421.906 0.882086C407.94 1.84009 385.774 4.99808 368.906 8.43308C299.395 22.5881 235.895 51.3211 179.639 94.0741C140.937 123.486 98.2233 168.653 74.3803 205.376C34.4723 266.844 12.1623 325.545 2.36727 394.86C0.225269 410.014 -0.824732 479.16 0.772268 499.832C4.32927 545.868 21.8563 606.834 44.5513 652.11C55.8763 674.705 73.5973 703.164 90.4373 725.804C123.368 770.075 161.984 805.042 215.523 839.07C277.95 878.745 342.361 900.049 420.335 906.809C448.774 909.275 496.376 907.691 526.179 903.288C583.66 894.796 648.156 872.091 694.406 844.067C717.711 829.946 747.973 809.043 751.817 804.411C754.71 800.925 751.743 801.767 745.21 806.286C716.524 826.129 691.611 841.427 671.911 851.296C626.693 873.949 565.936 891.346 519.673 894.888C498.414 896.516 431.499 895.524 415.906 893.351C359.179 885.444 297.469 864.771 250.406 837.909C233.804 828.433 207.04 810.267 191.906 798.201C175.618 785.215 141.627 751.498 129.506 736.304C121.959 726.843 112.144 712.631 96.4873 688.492C91.3063 680.505 75.9913 650.574 70.5123 637.729C48.7833 586.786 35.8263 529.858 34.2273 478.304C33.5923 457.839 35.0703 425.357 37.4733 406.982C43.9683 357.306 61.3693 304.385 85.8663 259.804C114.761 207.216 159.327 156.889 210.906 118.599C269.942 74.7741 340.423 44.0871 408.906 32.3941C431.817 28.4821 450.179 27.5041 490.353 28.0591C520.342 28.4731 528.929 28.9251 541.406 30.7451C574.048 35.5071 614.191 45.2071 640.843 54.7731C654.067 59.5201 658.189 59.6511 649.406 55.0461C640.807 50.5381 643.039 51.0801 656.067 56.6641C679.899 66.8791 697.088 76.4511 728.694 97.1091C738.752 103.683 747.226 108.818 747.524 108.519C748.364 107.679 738.782 100.442 723.406 90.3041C664.821 51.6751 595.324 25.3231 530.906 17.3111C497.855 13.2011 429.07 13.4791 399.406 17.8421C330.932 27.9151 265.114 53.1701 207.906 91.3221C159.651 123.503 106.332 176.635 74.9583 223.804C69.1963 232.467 65.2633 237.708 67.4543 233.804C76.8243 217.111 100.827 183.318 115.755 165.804C124.409 155.651 150.317 129.582 161.906 119.366C234.083 55.7421 328.914 16.0551 428.655 7.73008C447.052 6.19408 497.703 7.08908 514.906 9.25408C598.828 19.8131 673.867 49.4021 738.906 97.5811C768.631 119.601 803.872 154.885 831.436 190.223C837.408 197.879 842.458 203.649 842.658 203.047C844.312 198.086 798.403 145.178 768.906 118.05C739.537 91.0411 700.489 64.9661 661.406 46.2661C625.7 29.1811 586.07 15.7501 549.406 8.30709C525.803 3.51509 511.65 1.98008 480.406 0.82308C450.356 -0.28992 438.828 -0.277914 421.906 0.882086ZM521.668 22.4911C520.712 22.7411 518.912 22.7501 517.668 22.5111C516.424 22.2721 517.206 22.0671 519.406 22.0561C521.606 22.0451 522.624 22.2411 521.668 22.4911ZM545.406 24.8651C565.099 27.7491 602.833 36.2101 601.581 37.4621C601.382 37.6611 594.652 36.2421 586.626 34.3071C573.557 31.1561 548.739 26.5631 530.906 23.9951C526.561 23.3691 525.566 23.0181 527.906 22.9371C529.831 22.8701 537.706 23.7371 545.406 24.8651ZM607.406 38.8041C608.667 39.3461 608.851 39.6631 607.906 39.6631C607.081 39.6631 605.506 39.2771 604.406 38.8041C603.145 38.2621 602.961 37.9451 603.906 37.9451C604.731 37.9451 606.306 38.3311 607.406 38.8041ZM641.906 50.8041C642.731 51.3371 642.956 51.7731 642.406 51.7731C641.856 51.7731 640.731 51.3371 639.906 50.8041C639.081 50.2711 638.856 49.8351 639.406 49.8351C639.956 49.8351 641.081 50.2711 641.906 50.8041ZM750.906 111.7C750.906 112.574 757.514 118.804 758.441 118.804C759.854 118.804 758.498 116.319 755.683 113.748C752.392 110.741 750.906 110.105 750.906 111.7ZM847.906 213.092C847.906 214.867 853.815 221.64 853.865 219.922C853.919 218.108 850.004 211.804 848.824 211.804C848.319 211.804 847.906 212.383 847.906 213.092ZM858.906 231.114C858.906 231.926 859.614 232.862 860.479 233.194C861.575 233.614 861.954 233.293 861.729 232.133C861.318 230.017 858.906 229.145 858.906 231.114ZM65.4063 238.804C64.5533 240.454 63.6303 241.804 63.3553 241.804C63.0803 241.804 63.5533 240.454 64.4063 238.804C65.2593 237.154 66.1823 235.804 66.4573 235.804C66.7323 235.804 66.2593 237.154 65.4063 238.804ZM61.9063 244.804C61.3173 245.904 60.6113 246.804 60.3363 246.804C60.0613 246.804 60.3173 245.904 60.9063 244.804C61.4953 243.704 62.2013 242.804 62.4763 242.804C62.7513 242.804 62.4953 243.704 61.9063 244.804ZM972.906 269.51C972.081 269.812 970.34 271.014 969.037 272.181C958.916 281.249 900.01 382.488 878.874 427.138L872.468 440.671L866.374 442.202C863.022 443.044 856.258 445.266 851.343 447.14L842.406 450.547L841.779 442.483C841.181 434.781 840.985 434.264 837.429 431.006C832.788 426.753 831.224 426.963 817.257 433.717L807.109 438.625L804.281 435.673C798.725 429.874 792.022 426.375 786.485 426.382C779.051 426.392 773.277 430.028 759.388 443.442C744.243 458.069 733.091 466.461 720.406 472.776C706.535 479.682 699.707 480.422 692.188 475.836L688.971 473.873L693.924 463.264C696.649 457.43 702.777 445.65 707.542 437.088C720.121 414.486 721.863 408.877 716.806 407.272C714.188 406.441 711.188 408.492 705.374 415.086C701.24 419.775 696.933 426.228 681.53 450.804C671.028 467.562 646.936 488.976 633.601 493.405C626.363 495.809 626.071 494.818 630.283 482.142C636.795 462.539 636.918 457.095 630.939 453.054C624.311 448.574 614.842 450.33 591.134 460.436C582.677 464.041 575.586 466.817 575.375 466.606C575.164 466.395 576.36 462.416 578.032 457.763C585.707 436.415 586.223 432.674 581.688 431.235C577.138 429.791 567.811 444.364 562.891 460.609C560.243 469.35 560.71 472.975 565.062 477.465L568.179 480.681L582.292 473.609C603.664 462.9 620.363 456.891 624.422 458.448C626.573 459.274 625.947 461.61 620.235 474.07C614.911 485.686 614.036 490.221 616.281 494.562C620.01 501.774 627.658 503.941 636.406 500.265C642.743 497.603 655.783 488.736 666.017 480.131C671.196 475.777 675.973 471.881 676.634 471.472C677.423 470.984 678.694 472.426 680.343 475.679C683.202 481.322 686.601 484.106 692.603 485.722C702.877 488.489 722.844 481.279 744.656 466.927L753.906 460.841V464.454C753.906 467.387 754.729 468.89 758.274 472.436C761.846 476.007 763.313 476.804 766.314 476.804C771.816 476.804 781.511 471.305 794.406 460.871C799.874 456.447 801.571 456.062 805.855 458.278C809.467 460.145 810.784 458.837 812.036 452.14C813.911 442.101 827.804 430.845 832.51 435.551C834.442 437.483 833.745 445.2 831.133 450.792C829.199 454.933 818.377 465.945 804.406 477.987C791.293 489.29 755.507 525.641 745.12 538.208C740.619 543.656 736.032 549.977 734.929 552.256C731.925 558.462 731.43 564.605 733.602 568.733C736.499 574.24 740.12 576.298 746.715 576.188C755.972 576.033 760.803 573.105 774.417 559.397C792.739 540.949 807.286 520.374 822.845 490.9C831.724 474.08 837.666 466.429 846.869 459.966C853.233 455.497 868.448 448.013 869.345 448.91C869.563 449.128 869.347 451.412 868.867 453.985C867.089 463.5 866.021 477.976 866.922 480.345C867.419 481.652 869.639 483.923 871.856 485.389L875.886 488.057L879.646 485.195C883.452 482.298 890.847 475.482 909.909 457.304C935.571 432.832 939.434 431.589 931.671 450.304C923.95 468.915 921.077 484.731 923.875 493.211C925.674 498.66 930.407 503.593 935.034 504.838C944.317 507.338 962.154 499.227 981.775 483.583C985.828 480.352 989.297 477.862 989.484 478.049C989.672 478.236 988.757 481.753 987.452 485.863C982.291 502.115 976.886 533.181 976.588 548.304C976.432 556.235 976.707 557.834 978.908 561.765C982.872 568.846 990.45 572.86 993.706 569.604C995.678 567.632 995.114 565.985 990.906 561.42L986.906 557.08V547.692C986.907 530.744 991.778 506.772 1000.43 481.128C1006.59 462.879 1011.52 451.63 1031.05 411.253L1047.99 376.201L1089.02 376.63C1131.01 377.069 1134.85 376.769 1129.76 373.453C1125.79 370.857 1119.24 369.938 1093.34 368.336C1066.28 366.661 1058.02 365.903 1056.28 364.932C1055.57 364.536 1059.11 358.122 1065.88 347.543C1081.01 323.91 1082.54 319.804 1076.22 319.804C1072.01 319.804 1061.09 331.745 1049.1 349.459L1038.84 364.615L1033.12 365.226C1026.31 365.953 961.903 367.786 943.406 367.779C936.256 367.776 929.731 367.341 928.906 366.812C927.624 365.991 927.894 364.903 930.764 359.329C933.871 353.295 949.122 327.718 970.317 292.997C979.659 277.693 981.508 272.448 978.37 270.154C976.429 268.734 975.37 268.61 972.906 269.51ZM413.406 277.52C402.809 281.794 388.406 294.275 356.406 326.916C333.254 350.531 308.951 377.196 275.876 415.271C251.511 443.32 240.863 454.144 238.174 453.599C235.801 453.119 236.109 449.231 240.414 425.304C247.344 386.784 249.172 362.537 245.635 356.063C243.142 351.501 239.495 349.416 234.038 349.436C228.099 349.457 224.469 351.41 216.476 358.887C201.02 373.346 180.508 407.08 163.93 445.304C161.068 451.904 157.893 459.133 156.875 461.369C153.446 468.901 144.093 494.274 143.42 497.868C142.649 501.991 144.554 504.368 147.803 503.337C150.627 502.44 154.138 496.386 172.183 461.304C205.952 395.651 217.058 376.896 229.26 364.917C233.183 361.064 235.237 359.717 236.464 360.188C238.024 360.787 238.13 362.376 237.614 377.575C237.17 390.695 236.161 399.482 232.938 418.304C230.678 431.504 228.556 445.771 228.223 450.009L227.616 457.714L231.161 461.259C236.225 466.323 239.306 466.059 246.604 459.937C254.371 453.423 271.026 436.158 296.415 408.304C369.644 327.965 406.498 290.951 417.385 286.812C420.883 285.482 420.906 285.489 420.906 287.792C420.906 294.073 409.79 323.224 371.841 416.465C326.283 528.401 314.61 560.309 306.053 596.304C299.938 622.024 298.663 633.893 301.327 640.27C302.7 643.555 307.172 646.804 310.321 646.804C312.701 646.804 314.069 643.363 312.906 640.304C310.478 633.918 312.18 622.067 320.085 590.304C329.013 554.436 344.013 514.055 380.633 427.304C412.693 351.357 428.67 310.398 431.411 297.125C433.627 286.4 432.706 282.804 426.521 278.031C423.139 275.42 419.011 275.26 413.406 277.52ZM588.328 334.735C577.989 340.666 570.066 352.544 542.919 402.818C535.053 417.385 528.448 429.5 528.242 429.74C528.035 429.98 525.238 427.474 522.026 424.17C518.813 420.867 514.591 417.408 512.644 416.484C505.192 412.948 496.779 415.062 484.13 423.652C477.514 428.145 471.405 433.993 458.473 448.21C445.159 462.849 433.59 470.858 417.171 476.803C410.572 479.193 401.959 479.257 399.635 476.933C396.521 473.819 399.862 463.248 409.474 445.804C420.448 425.887 425.906 414.638 425.906 411.936C425.906 408.384 423.695 406.389 420.616 407.162C412.31 409.247 392.735 440.418 387.929 459.214C384.682 471.911 385.246 475.144 391.866 481.764C395.804 485.702 396.08 485.804 402.794 485.804C414.077 485.804 432.77 479.576 444.994 471.743C447.517 470.127 449.82 468.804 450.112 468.804C450.404 468.804 450.886 470.621 451.184 472.842C452.936 485.906 464.966 489.329 480.914 481.302C488.672 477.397 493.616 474.277 507.656 464.426C512.194 461.242 515.901 459.012 515.895 459.471C515.888 459.929 514.136 466.379 512 473.804C505.755 495.515 504.544 504.318 504.47 528.531L504.406 549.758L507.532 552.888C509.866 555.225 511.196 555.847 512.783 555.343C516.584 554.137 517.177 551.382 514.665 546.602C512.581 542.637 512.416 541.102 512.536 526.804C512.723 504.563 514.779 493.804 525.016 461.505L530.023 445.706L548.724 426.505C585.739 388.502 597.377 373.73 602.973 357.654C606.967 346.18 606.976 339.161 603.005 334.91C599.251 330.891 595.116 330.842 588.328 334.735ZM597.906 345.744C597.906 352.301 591.615 364.655 581.07 378.804C568.765 395.316 551.547 413.804 548.474 413.804C547.298 413.804 565.81 378.31 571.682 369.304C582.132 353.279 593.194 340.91 597.156 340.821C597.569 340.812 597.906 343.027 597.906 345.744ZM453.444 349.304C450.103 353.109 446.933 355.804 445.797 355.804C444.73 355.804 440.954 353.97 437.405 351.729C426.682 344.957 423.907 348.278 430.406 360.103C432.331 363.605 433.906 367.15 433.906 367.981C433.906 368.812 431.206 371.657 427.906 374.304C421.639 379.331 420.728 381.428 423.658 384.08C425.232 385.504 426.178 385.52 432.908 384.236C443.536 382.21 443.277 382.13 445.336 388.054C447.968 395.622 449.561 397.804 452.454 397.804C455.456 397.804 456.369 395.81 457.383 387.035C458.226 379.736 458.483 379.526 468.67 377.829C475.576 376.678 477.906 375.221 477.906 372.052C477.906 371.566 474.264 369.665 469.814 367.827C465.363 365.99 461.487 363.876 461.201 363.13C460.915 362.384 461.195 358.254 461.824 353.951C463.754 340.755 461.867 339.709 453.444 349.304ZM1015.58 374.644C1023.92 375.014 1031.08 375.64 1031.47 376.036C1033.85 378.414 1001.46 447.718 991.147 462.304C977.652 481.4 957.06 496.711 942.581 498.412C931.148 499.756 931.068 494.214 942.016 459.47C944.818 450.579 947.345 440.561 947.633 437.209C948.102 431.736 947.915 430.89 945.8 428.92C938.718 422.322 934.36 424.679 907.406 449.682C888.92 466.831 880.892 473.804 879.636 473.804C876.551 473.804 891.048 436.724 906.417 405.304C915.645 386.44 920.711 378.542 924.623 376.921C926.268 376.24 932.292 375.324 938.01 374.886C951.003 373.89 995.417 373.751 1015.58 374.644ZM720.906 385.804C718.366 388.344 718.362 392.399 720.895 396.554C723.289 400.481 726.704 400.828 731.906 397.674C737.983 393.99 738.485 391.082 733.8 386.705C729.955 383.113 724.012 382.698 720.906 385.804ZM513.538 433.172C520.417 440.052 519.42 443.35 506.901 455.127C495.628 465.731 482.417 475.449 475.99 477.865C472.641 479.123 468.825 479.786 465.99 479.602C461.608 479.317 461.392 479.159 461.09 476.012C460.297 467.771 467.912 455.546 481.975 442.481C491.348 433.773 499.724 428.869 505.288 428.831C508.554 428.808 509.861 429.496 513.538 433.172ZM793.008 441.088C799.871 445.702 797.768 449.586 782.916 459.722C767.08 470.53 764.896 471.056 764.928 464.054C764.968 455.342 770.738 447.155 780.906 441.383C786.465 438.227 788.672 438.173 793.008 441.088ZM813.342 485.554C808.099 494.598 795.796 513.747 790.242 521.509C778.151 538.406 756.822 561.24 749.15 565.501L745.195 567.697L742.06 564.463L738.924 561.228L742.472 555.23C746.802 547.912 756.559 536.041 770.655 520.945C785.913 504.605 812.26 480.804 815.091 480.804C815.644 480.804 814.857 482.942 813.342 485.554ZM756.886 797.328C756.19 798.166 755.846 799.077 756.12 799.352C757.026 800.257 759.906 798.618 759.906 797.197C759.906 795.362 758.465 795.425 756.886 797.328Z" fill="#82bbf9"/>
</svg>
